<?xml version="1.0" standalone="no"?>
<!DOCTYPE svg PUBLIC "-//W3C//DTD SVG 20010904//EN"
 "http://www.w3.org/TR/2001/REC-SVG-20010904/DTD/svg10.dtd">
<svg version="1.0" xmlns="http://www.w3.org/2000/svg"
 width="443.000000pt" height="120.000000pt" viewBox="0 0 443.000000 120.000000"
 preserveAspectRatio="xMidYMid meet">

<g transform="translate(0.000000,120.000000) scale(0.100000,-0.100000)"
fill="#000000" stroke="none">
<path d="M505 1066 c-64 -29 -105 -94 -105 -167 l0 -39 -50 0 c-137 0 -258
-103 -276 -233 -14 -100 53 -220 150 -267 37 -17 62 -20 194 -20 l152 0 0 85
0 85 -134 0 c-127 0 -134 1 -160 25 -36 33 -36 92 -1 125 23 22 31 23 160 21
l135 -2 0 200 c0 223 2 217 -65 187z"/>
<path d="M752 773 l3 -88 123 -1 c150 -2 168 -6 187 -45 21 -39 12 -82 -22
-109 -23 -18 -41 -20 -159 -20 l-134 0 0 -196 0 -197 37 6 c71 12 122 88 123
183 l0 32 78 4 c87 4 138 24 187 73 52 53 70 100 70 185 -1 90 -23 139 -86
193 -64 55 -112 67 -271 67 l-139 0 3 -87z"/>
<path d="M1390 600 l0 -140 60 0 c107 0 150 41 150 144 0 47 -5 61 -27 86 -29
32 -79 49 -145 50 l-38 0 0 -140z m124 67 c11 -8 20 -31 23 -59 5 -40 2 -50
-20 -72 -14 -14 -35 -26 -47 -26 -19 0 -20 6 -20 85 0 82 1 85 23 85 13 0 31
-6 41 -13z"/>
<path d="M1660 600 l0 -140 30 0 30 0 0 140 0 140 -30 0 -30 0 0 -140z"/>
<path d="M1843 720 c-42 -25 -63 -68 -63 -127 0 -53 25 -104 61 -124 29 -15
108 -16 137 0 20 10 22 19 22 82 l0 70 -47 -3 c-44 -3 -48 -5 -48 -28 0 -19 6
-26 23 -28 34 -5 26 -46 -9 -50 -43 -5 -74 29 -74 81 0 66 26 91 86 84 37 -5
47 -2 57 13 10 17 8 22 -18 35 -40 21 -89 19 -127 -5z"/>
<path d="M2067 734 c-4 -4 -7 -67 -7 -141 l0 -133 35 0 36 0 -3 138 -3 137
-25 3 c-14 2 -29 0 -33 -4z"/>
<path d="M2170 710 c0 -28 2 -30 40 -30 l40 0 0 -110 0 -110 30 0 30 0 0 109
0 110 38 3 c32 3 37 6 37 28 0 25 0 25 -107 28 l-108 3 0 -31z"/>
<path d="M2461 718 c-5 -13 -23 -70 -41 -127 -17 -57 -34 -110 -37 -118 -4 -9
5 -13 30 -13 31 0 36 4 42 30 6 28 10 30 50 30 40 0 44 -2 50 -30 6 -26 11
-30 41 -30 19 0 34 1 34 3 0 1 -20 63 -43 137 l-43 135 -37 3 c-31 3 -38 -1
-46 -20z m69 -140 c0 -5 -12 -8 -26 -8 -25 0 -26 2 -20 38 14 76 18 80 32 27
8 -27 14 -53 14 -57z"/>
<path d="M2660 600 l0 -141 87 3 c82 3 86 4 88 26 2 20 -3 22 -51 22 l-53 0
-3 113 -3 112 -32 3 -33 3 0 -141z"/>
<path d="M2970 600 l0 -140 30 0 c29 0 30 2 30 45 0 43 1 45 30 45 97 0 149
83 98 153 -16 21 -74 36 -140 37 l-48 0 0 -140z m138 48 c3 -22 -2 -30 -22
-39 -37 -17 -56 -5 -56 36 0 36 1 36 38 33 32 -3 37 -7 40 -30z"/>
<path d="M3230 600 l0 -140 30 0 c30 0 30 1 30 55 l0 55 45 0 45 0 0 -55 0
-55 35 0 35 0 0 141 0 140 -32 -3 c-32 -3 -33 -4 -36 -55 l-3 -53 -45 0 -44 0
0 55 c0 54 0 55 -30 55 l-30 0 0 -140z"/>
<path d="M3567 733 c-3 -4 -21 -61 -41 -126 -20 -65 -39 -124 -43 -132 -4 -11
3 -15 30 -15 31 0 36 4 42 30 6 28 10 30 50 30 39 0 43 -2 49 -30 5 -27 10
-30 41 -30 19 0 35 1 35 3 0 1 -20 63 -43 137 l-43 135 -36 3 c-20 2 -38 -1
-41 -5z m57 -125 c7 -36 6 -38 -20 -38 -25 0 -26 2 -20 38 4 20 10 46 13 57 6
20 6 20 13 0 4 -11 10 -37 14 -57z"/>
<path d="M3760 601 l0 -142 33 3 c31 3 32 5 35 51 4 63 24 62 57 -3 23 -46 28
-50 60 -50 l35 0 -27 54 c-24 50 -25 55 -10 71 22 21 31 58 23 90 -10 39 -49
58 -132 63 l-74 5 0 -142z m139 65 c20 -24 -4 -56 -39 -56 -28 0 -30 3 -30 35
0 32 3 35 29 35 16 0 34 -6 40 -14z"/>
<path d="M4027 734 c-4 -4 -7 -67 -7 -141 l0 -133 30 0 30 0 1 88 0 87 28 -75
c37 -101 56 -102 91 -5 l25 70 3 -82 3 -83 30 0 30 0 -3 138 -3 137 -35 0
c-35 0 -35 0 -64 -83 l-29 -84 -31 84 c-29 77 -33 83 -61 86 -17 2 -34 0 -38
-4z"/>
</g>
</svg>
