<?xml version="1.0" standalone="no"?>
<!DOCTYPE svg PUBLIC "-//W3C//DTD SVG 20010904//EN"
 "http://www.w3.org/TR/2001/REC-SVG-20010904/DTD/svg10.dtd">
<svg version="1.0" xmlns="http://www.w3.org/2000/svg"
 width="48.000000pt" height="48.000000pt" viewBox="0 0 48.000000 48.000000"
 preserveAspectRatio="xMidYMid meet">

<g transform="translate(0.000000,48.000000) scale(0.100000,-0.100000)"
fill="#000000" stroke="none">
<path d="M90 395 c0 -8 5 -15 10 -15 6 0 10 -13 10 -30 0 -27 -3 -30 -31 -30
-28 0 -31 -3 -25 -22 3 -13 6 -33 6 -45 0 -14 6 -23 15 -23 10 0 15 10 15 30
0 17 5 30 10 30 6 0 10 -24 10 -53 0 -40 5 -58 18 -70 43 -39 82 -5 82 71 0
51 1 52 30 52 30 0 30 -1 30 -53 0 -40 5 -58 18 -70 43 -39 82 -5 82 71 0 29
5 52 10 52 6 0 10 -30 10 -70 0 -56 3 -70 15 -70 12 0 15 14 15 63 0 34 3 72
6 85 6 19 3 22 -25 22 -28 0 -31 3 -31 30 0 17 5 30 10 30 6 0 10 7 10 15 0
12 -14 15 -70 15 -56 0 -70 -3 -70 -15 0 -8 5 -15 10 -15 6 0 10 -13 10 -30 0
-27 -3 -30 -30 -30 -27 0 -30 3 -30 30 0 17 5 30 10 30 6 0 10 7 10 15 0 12
-14 15 -70 15 -56 0 -70 -3 -70 -15z m90 -45 c0 -23 -4 -30 -20 -30 -16 0 -20
7 -20 30 0 23 4 30 20 30 16 0 20 -7 20 -30z m160 0 c0 -23 -4 -30 -20 -30
-16 0 -20 7 -20 30 0 23 4 30 20 30 16 0 20 -7 20 -30z m-162 -112 c-2 -39 -7
-53 -18 -53 -11 0 -16 14 -18 53 -3 47 -1 52 18 52 19 0 21 -5 18 -52z m160 0
c-2 -39 -7 -53 -18 -53 -11 0 -16 14 -18 53 -3 47 -1 52 18 52 19 0 21 -5 18
-52z"/>
<path d="M60 152 c0 -32 5 -63 12 -70 17 -17 319 -17 336 0 17 17 15 48 -3 48
-8 0 -15 -7 -15 -15 0 -13 -23 -15 -150 -15 l-150 0 0 55 c0 42 -3 55 -15 55
-12 0 -15 -13 -15 -58z"/>
</g>
</svg>
