<?xml version="1.0" standalone="no"?>
<!DOCTYPE svg PUBLIC "-//W3C//DTD SVG 20010904//EN"
 "http://www.w3.org/TR/2001/REC-SVG-20010904/DTD/svg10.dtd">
<svg version="1.0" xmlns="http://www.w3.org/2000/svg"
 width="512.000000pt" height="512.000000pt" viewBox="0 0 512.000000 512.000000"
 preserveAspectRatio="xMidYMid meet">

<g transform="translate(0.000000,512.000000) scale(0.100000,-0.100000)"
fill="#000000" stroke="none">
<path d="M3147 5105 c-288 -55 -540 -241 -665 -491 -151 -301 -31 -591 318
-773 195 -101 372 -141 543 -123 189 20 385 85 517 171 81 52 201 176 248 256
125 212 129 412 12 585 -110 161 -331 301 -571 360 -112 28 -298 35 -402 15z
m27 -97 c8 -13 5 -22 -13 -42 -19 -20 -9 -17 65 20 101 51 131 54 230 23 252
-76 492 -318 535 -537 51 -268 -188 -574 -508 -648 -89 -21 -224 -20 -239 0
-7 10 -27 16 -53 16 -23 0 -58 7 -78 15 -32 14 -35 18 -29 46 l6 30 -44 -6
c-52 -8 -112 15 -170 65 -68 60 -84 127 -46 197 20 37 26 96 14 127 -9 24 -40
19 -86 -14 -45 -33 -75 -38 -84 -15 -11 28 17 82 94 176 43 53 95 129 116 170
22 41 54 96 73 123 44 61 30 53 -85 -53 -132 -122 -182 -141 -182 -68 0 68
134 241 247 319 100 69 212 95 237 56z"/>
<path d="M2326 3594 c-207 -50 -392 -245 -527 -554 -143 -330 -178 -471 -214
-870 -32 -366 -83 -527 -238 -753 -147 -215 -268 -308 -567 -436 -220 -94
-366 -165 -393 -189 -24 -22 -57 -98 -57 -133 0 -83 124 -339 237 -489 74 -98
131 -147 185 -160 102 -25 255 5 446 87 281 120 422 201 714 415 400 291 606
388 827 388 299 0 555 -197 923 -710 105 -146 130 -161 251 -152 75 5 88 9
163 53 45 26 137 92 206 146 69 54 156 122 194 152 91 71 131 121 151 190 15
52 15 63 0 141 -60 317 -387 645 -1010 1015 -155 91 -256 173 -277 225 -10 25
-10 34 4 55 32 49 107 67 380 90 248 22 290 29 445 81 319 107 534 242 597
377 57 124 20 240 -163 504 -104 150 -114 156 -269 161 -134 5 -268 -13 -519
-70 -143 -32 -200 -41 -280 -41 -126 0 -145 8 -272 119 -90 79 -115 95 -298
184 -249 122 -327 155 -401 175 -71 18 -159 18 -238 -1z m157 -109 c63 -21
201 -98 414 -231 389 -242 559 -303 817 -291 140 6 247 31 383 88 117 50 170
52 234 10 43 -29 96 -92 136 -161 11 -19 46 -79 78 -133 75 -125 83 -176 36
-229 -35 -41 -140 -115 -256 -181 l-81 -46 -164 -16 c-449 -42 -667 -84 -826
-160 -229 -110 -185 -255 135 -450 407 -247 762 -568 967 -875 69 -102 85
-206 44 -292 -41 -89 -271 -291 -334 -295 -17 -1 -47 -5 -66 -8 -25 -4 -44 0
-67 14 -39 25 -43 60 -13 106 40 60 15 92 -43 56 -41 -25 -47 -25 -94 -6 l-36
15 32 24 c40 30 60 56 61 79 0 43 -75 3 -102 -54 l-16 -31 -38 38 c-70 71
-199 232 -228 284 -25 46 -27 54 -16 81 17 39 7 46 -33 24 -32 -17 -35 -17
-78 2 -62 28 -149 100 -160 132 -6 16 -20 33 -32 39 -56 28 -101 41 -121 36
-12 -3 -69 7 -127 23 -130 34 -249 38 -324 9 -124 -48 -297 -167 -620 -426
-459 -368 -672 -503 -846 -538 -87 -17 -109 -13 -109 20 0 30 -46 128 -60 128
-5 0 -29 -13 -52 -30 -41 -30 -72 -37 -95 -22 -7 4 -31 43 -53 86 -58 112 -55
168 15 245 66 73 29 119 -50 62 -59 -42 -92 -41 -111 4 -7 19 -14 44 -14 55 0
46 172 194 267 230 151 57 357 181 471 285 34 31 62 55 62 53 0 -3 -62 -63
-137 -134 -148 -138 -189 -182 -180 -191 16 -16 112 70 424 381 189 187 341
342 338 344 -2 3 -94 -79 -204 -182 -199 -186 -263 -237 -159 -128 159 166
260 349 303 543 l13 64 1 -63 c1 -75 2 -75 97 18 62 61 124 162 124 200 0 32
-25 43 -57 26 -30 -16 -133 -118 -152 -151 -9 -16 -10 2 -5 80 7 121 14 134
150 275 52 54 94 102 94 105 0 10 -52 -30 -85 -65 -16 -17 -43 -39 -59 -47
-28 -15 -31 -14 -49 8 -16 20 -18 34 -13 80 13 128 93 285 217 424 93 104 179
228 179 256 0 19 -1 19 -22 4 -13 -8 -73 -63 -135 -120 -61 -58 -114 -105
-117 -105 -26 0 19 158 83 295 130 276 289 389 464 330z"/>
<path d="M3612 663 c-47 -40 -32 -103 24 -103 30 0 74 41 74 69 0 46 -59 67
-98 34z"/>
</g>
</svg>
