<?xml version="1.0" standalone="no"?>
<!DOCTYPE svg PUBLIC "-//W3C//DTD SVG 20010904//EN"
 "http://www.w3.org/TR/2001/REC-SVG-20010904/DTD/svg10.dtd">
<svg version="1.0" xmlns="http://www.w3.org/2000/svg"
 width="1024.000000pt" height="1024.000000pt" viewBox="0 0 1024.000000 1024.000000"
 preserveAspectRatio="xMidYMid meet">

<g transform="translate(0.000000,1024.000000) scale(0.100000,-0.100000)"
fill="#000000" stroke="none">
<path d="M1455 6167 c-60 -105 -111 -195 -113 -199 -2 -4 154 -8 347 -8 l351
0 0 -612 c0 -663 -1 -679 -54 -759 -41 -61 -97 -92 -173 -97 -80 -5 -136 14
-185 66 -32 32 -99 132 -111 166 -3 6 -33 -16 -68 -49 -87 -83 -166 -154 -213
-192 l-39 -32 32 -50 c66 -103 187 -192 328 -243 83 -29 283 -37 385 -14 257
57 442 253 499 528 18 87 19 143 19 891 l0 797 -447 0 -448 -1 -110 -192z"/>
<path d="M6253 5854 c-111 -55 -75 -234 47 -234 56 0 87 15 110 52 42 70 16
154 -56 184 -42 18 -61 17 -101 -2z"/>
<path d="M3260 5535 c-104 -30 -182 -92 -221 -179 -33 -73 -31 -76 70 -76 l89
0 39 39 c104 105 277 63 297 -71 4 -27 5 -52 2 -57 -3 -5 -56 -9 -118 -10
-226 -4 -345 -49 -401 -155 -31 -58 -31 -193 0 -251 49 -92 133 -138 252 -137
102 0 173 27 234 89 l47 47 0 -62 0 -62 95 0 96 0 -3 338 -3 337 -28 57 c-52
106 -147 158 -302 164 -61 3 -108 -1 -145 -11z m280 -522 c0 -128 -86 -216
-212 -217 -69 -1 -107 23 -127 81 -13 36 -12 43 5 79 12 24 32 45 54 56 39 19
135 35 223 37 l57 1 0 -37z"/>
<path d="M4160 5535 c-146 -41 -256 -161 -290 -316 -19 -83 -8 -249 19 -322
28 -71 86 -146 146 -187 144 -99 373 -95 511 9 50 37 117 126 111 145 -2 5
-41 19 -88 31 l-84 20 -40 -41 c-85 -89 -242 -85 -319 7 -31 36 -41 59 -51
113 l-7 36 297 0 297 0 -3 123 c-4 115 -6 127 -37 189 -40 82 -111 149 -190
179 -75 28 -198 34 -272 14z m194 -179 c38 -16 78 -64 95 -115 21 -64 29 -61
-184 -61 -107 0 -195 4 -195 9 0 21 25 79 47 109 49 65 156 92 237 58z"/>
<path d="M5148 5541 c-45 -15 -95 -50 -126 -88 l-29 -36 5 56 4 57 -101 0
-101 0 0 -440 0 -440 99 0 99 0 4 293 c3 261 5 296 22 330 26 52 69 80 130 84
64 5 112 -18 141 -67 19 -33 20 -55 23 -337 l3 -303 99 0 99 0 3 293 c3 269 5
295 23 331 29 57 64 79 132 84 49 3 64 0 93 -20 62 -42 69 -81 70 -405 l0
-283 101 0 100 0 -3 338 -3 337 -33 67 c-38 78 -89 121 -171 145 -128 37 -264
-14 -333 -126 l-21 -33 -15 28 c-21 43 -72 93 -115 116 -44 22 -156 33 -199
19z"/>
<path d="M6923 5536 c-57 -19 -108 -51 -138 -89 l-25 -32 0 58 0 57 -95 0 -95
0 0 -440 0 -440 100 0 100 0 0 268 c0 147 5 285 10 306 11 48 36 84 80 114 47
31 143 31 191 -1 67 -44 69 -57 69 -389 l0 -298 105 0 105 0 0 293 c0 301 -7
383 -40 447 -26 50 -87 105 -143 130 -60 27 -168 35 -224 16z"/>
<path d="M7723 5535 c-75 -21 -122 -47 -164 -92 -41 -42 -79 -111 -79 -143 0
-19 6 -20 86 -20 l86 0 38 39 c66 68 181 77 253 20 30 -23 50 -80 45 -124 -3
-33 12 -30 -188 -38 -175 -8 -283 -57 -332 -150 -32 -60 -31 -183 1 -250 46
-94 131 -140 259 -139 73 0 91 4 147 31 36 18 78 48 95 69 l30 37 0 -63 0 -62
101 0 100 0 -3 333 c-3 325 -4 333 -27 385 -29 64 -100 130 -167 155 -67 25
-213 31 -281 12z m267 -535 c0 -68 -19 -109 -69 -152 -101 -86 -235 -72 -270
29 -13 36 -12 43 5 79 12 24 32 45 54 56 39 19 135 35 223 37 l57 1 0 -50z"/>
<path d="M8697 5535 c-30 -10 -66 -33 -97 -64 l-50 -47 0 53 0 53 -100 0 -100
0 0 -440 0 -441 100 3 99 3 3 280 c3 260 5 283 24 326 31 66 73 93 154 97 78
4 124 -17 155 -69 19 -32 20 -55 23 -336 l3 -303 100 0 100 0 -3 348 -3 347
-30 54 c-33 59 -68 90 -139 122 -63 28 -175 34 -239 14z"/>
<path d="M6200 5090 l0 -440 100 0 100 0 0 440 0 440 -100 0 -100 0 0 -440z"/>
</g>
</svg>
