<?xml version="1.0" standalone="no"?>
<!DOCTYPE svg PUBLIC "-//W3C//DTD SVG 20010904//EN"
 "http://www.w3.org/TR/2001/REC-SVG-20010904/DTD/svg10.dtd">
<svg version="1.0" xmlns="http://www.w3.org/2000/svg"
 width="512.000000pt" height="512.000000pt" viewBox="0 0 512.000000 512.000000"
 preserveAspectRatio="xMidYMid meet">

<g transform="translate(0.000000,512.000000) scale(0.100000,-0.100000)"
fill="#000000" stroke="none">
<path d="M3705 3146 c-71 -32 -95 -84 -95 -201 l0 -84 -249 -3 c-234 -3 -251
-4 -277 -24 -50 -37 -69 -72 -69 -124 0 -78 54 -136 139 -148 l47 -7 38 -100
c66 -174 163 -353 263 -484 l50 -66 -54 -48 c-29 -27 -105 -91 -169 -142 -131
-105 -156 -132 -165 -180 -19 -102 91 -198 188 -166 33 11 215 151 341 263
l67 60 68 -60 c125 -112 307 -252 340 -263 97 -32 207 64 188 166 -9 48 -34
75 -165 180 -64 51 -140 115 -169 142 l-54 48 50 66 c100 131 197 310 263 484
l38 100 47 7 c85 12 139 70 139 148 0 52 -19 87 -69 124 -26 20 -43 21 -276
24 l-248 3 -4 99 c-2 81 -7 104 -24 126 -47 64 -119 88 -179 60z m275 -653
c-48 -113 -135 -262 -200 -343 l-20 -25 -20 25 c-65 81 -152 230 -200 343
l-29 67 249 0 249 0 -29 -67z"/>
</g>
</svg>
