<?xml version="1.0" standalone="no"?>
<!DOCTYPE svg PUBLIC "-//W3C//DTD SVG 20010904//EN"
 "http://www.w3.org/TR/2001/REC-SVG-20010904/DTD/svg10.dtd">
<svg version="1.0" xmlns="http://www.w3.org/2000/svg"
 width="512.000000pt" height="512.000000pt" viewBox="0 0 512.000000 512.000000"
 preserveAspectRatio="xMidYMid meet">

<g transform="translate(0.000000,512.000000) scale(0.100000,-0.100000)"
fill="#000000" stroke="none">
<path d="M675 5019 c-110 -54 -208 -109 -218 -121 -13 -16 -17 -32 -14 -54 8
-45 115 -242 136 -249 11 -3 65 -99 140 -246 l123 -240 -36 -73 c-49 -98 -65
-204 -47 -306 l13 -72 32 7 c17 3 54 9 82 12 l51 6 -14 46 c-24 76 -11 161 38
257 51 100 53 137 9 226 -154 306 -274 528 -291 533 -16 5 -49 52 -49 69 0 7
216 116 228 116 14 0 32 -48 32 -86 0 -45 289 -610 325 -637 13 -10 45 -21 69
-26 45 -8 45 -8 55 23 5 17 9 51 9 77 0 37 -4 47 -21 55 -30 13 -256 456 -257
503 0 41 -91 226 -126 259 -14 12 -35 22 -47 21 -12 0 -112 -45 -222 -100z"/>
<path d="M1865 5095 c-65 -64 5 -237 114 -282 38 -16 84 -19 159 -8 61 8 110
-6 142 -40 l23 -25 -64 -59 c-36 -32 -77 -82 -92 -110 l-28 -50 56 -56 c30
-30 55 -60 55 -65 0 -6 5 -10 10 -10 6 0 10 7 10 15 0 28 47 109 86 148 21 20
63 50 93 65 49 24 68 27 151 27 76 0 104 -4 142 -22 61 -28 129 -91 159 -148
13 -25 26 -45 29 -45 3 0 22 38 44 85 l38 84 -31 40 c-39 49 -131 112 -209
142 -47 19 -78 23 -180 24 l-123 2 -30 41 c-66 90 -164 127 -305 116 -77 -6
-82 -5 -98 17 -9 13 -16 38 -16 57 0 43 -38 82 -80 82 -19 0 -40 -9 -55 -25z"/>
<path d="M3240 4587 c-19 -6 -55 -32 -81 -57 -45 -44 -115 -190 -385 -797
l-24 -53 88 0 88 0 159 355 c88 195 168 364 178 375 39 43 52 40 364 -101 162
-73 301 -139 309 -147 35 -34 29 -58 -68 -271 l-95 -208 61 -7 c34 -4 72 -8
84 -9 22 -2 32 16 110 188 80 176 86 195 86 255 0 75 -23 130 -76 176 -18 16
-171 91 -343 169 -331 148 -371 160 -455 132z"/>
<path d="M1676 4485 c-78 -34 -127 -70 -149 -110 -17 -32 -25 -93 -17 -129 5
-22 3 -41 -6 -57 -18 -33 -17 -137 1 -190 18 -49 21 -195 7 -271 l-9 -48 82 0
82 0 7 46 c11 85 7 249 -9 300 -21 69 -19 94 11 125 26 28 26 28 10 69 -28 71
-24 84 45 114 33 15 67 25 75 22 8 -3 24 -28 36 -56 20 -47 23 -50 58 -50 43
0 56 -12 93 -91 31 -65 110 -143 274 -271 70 -55 127 -110 154 -147 l44 -60
88 0 87 -1 -14 35 c-44 104 -147 213 -356 378 -95 75 -108 89 -141 155 -41 83
-79 127 -126 144 -18 7 -33 15 -33 19 0 18 -58 74 -95 90 -60 27 -109 23 -199
-16z"/>
<path d="M2500 4440 c-31 -31 -30 -72 6 -142 27 -52 48 -68 93 -68 33 0 71 39
71 74 0 31 -55 142 -75 149 -32 13 -75 7 -95 -13z"/>
<path d="M3465 4135 c-16 -15 -25 -36 -25 -55 0 -19 9 -40 25 -55 15 -16 36
-25 55 -25 19 0 40 9 55 25 16 15 25 36 25 55 0 19 -9 40 -25 55 -15 16 -36
25 -55 25 -19 0 -40 -9 -55 -25z"/>
<path d="M840 3507 c-49 -16 -133 -102 -148 -153 -7 -25 -12 -103 -12 -193 0
-148 1 -153 25 -176 17 -18 35 -25 64 -25 37 0 40 -2 46 -32 3 -18 39 -292 80
-608 41 -316 77 -589 80 -606 5 -29 9 -32 49 -36 24 -3 58 -13 76 -22 18 -9
36 -14 39 -11 3 3 -33 299 -81 658 -47 359 -84 653 -83 655 1 1 625 1 1386 0
l1385 -3 -162 -1235 c-90 -679 -163 -1236 -163 -1237 -1 -2 -335 -3 -743 -3
l-743 -1 -26 -79 -25 -80 759 0 758 0 -7 -47 c-9 -62 -18 -80 -54 -98 -25 -13
-131 -15 -788 -15 l-759 0 -27 -40 c-15 -23 -43 -59 -63 -81 l-36 -39 849 2
849 3 41 22 c54 29 117 101 132 150 6 21 90 646 187 1388 97 743 178 1360 181
1373 4 18 11 22 45 22 29 0 47 7 64 25 24 23 25 28 25 176 0 179 -8 214 -67
279 -78 87 57 80 -1617 79 -1049 -1 -1491 -4 -1516 -12z m3015 -172 c23 -22
25 -32 25 -120 l0 -95 -1520 0 -1520 0 0 95 c0 88 2 98 25 120 l24 25 1471 0
1471 0 24 -25z"/>
<path d="M2241 2224 c-253 -68 -410 -331 -346 -579 67 -256 329 -415 580 -350
190 50 330 207 358 401 48 331 -270 615 -592 528z m268 -184 c69 -37 99 -69
139 -144 22 -43 26 -64 26 -136 1 -78 -2 -90 -33 -148 -38 -70 -70 -101 -145
-140 -43 -22 -64 -26 -136 -26 -70 -1 -94 4 -135 24 -181 89 -239 310 -124
477 88 128 266 168 408 93z"/>
<path d="M945 1495 c-41 -40 -34 -77 24 -133 32 -31 53 -62 62 -90 6 -23 10
-44 8 -46 -2 -2 -37 3 -77 12 -91 19 -202 7 -286 -33 -110 -52 -213 -192 -224
-305 -5 -54 -3 -57 102 -143 54 -45 83 -96 97 -173 13 -68 -6 -149 -51 -222
-16 -27 -30 -61 -30 -74 0 -33 68 -134 126 -188 95 -87 195 -113 335 -84 81
16 95 17 152 3 208 -48 335 13 478 230 95 145 142 305 142 481 -1 192 -33 290
-131 392 -66 70 -134 104 -236 120 -71 11 -164 3 -219 -18 -11 -4 -16 7 -22
43 -13 92 -64 179 -133 227 -48 33 -86 33 -117 1z m45 -430 c105 -32 155 -31
261 1 142 43 256 17 326 -75 47 -61 66 -136 66 -261 0 -163 -41 -288 -139
-426 -90 -127 -146 -154 -266 -129 -94 19 -146 19 -235 -2 -61 -14 -79 -14
-114 -4 -42 13 -139 93 -139 116 0 7 11 38 25 68 79 172 36 391 -100 516 l-56
50 20 38 c28 55 73 93 133 114 72 25 119 24 218 -6z"/>
<path d="M3807 943 c-2 -4 -8 -39 -12 -76 l-7 -69 41 -34 c24 -21 52 -60 70
-99 50 -105 50 -105 339 -105 149 0 251 4 263 10 18 10 19 6 19 -90 0 -96 -1
-100 -19 -90 -12 6 -114 10 -263 10 -285 0 -292 -2 -333 -93 -42 -96 -100
-147 -167 -147 -31 0 -35 -4 -67 -73 -19 -39 -37 -76 -39 -81 -3 -5 38 -7 89
-4 73 3 105 9 144 28 63 30 126 94 160 159 l25 51 174 0 c135 0 180 -3 202
-15 39 -20 137 -19 181 2 60 28 73 71 73 253 0 183 -14 230 -74 255 -46 19
-143 19 -180 0 -22 -12 -67 -15 -202 -15 l-174 0 -21 43 c-12 23 -35 58 -50
78 -43 55 -159 124 -172 102z"/>
</g>
</svg>
