<?xml version="1.0" standalone="no"?>
<!DOCTYPE svg PUBLIC "-//W3C//DTD SVG 20010904//EN"
 "http://www.w3.org/TR/2001/REC-SVG-20010904/DTD/svg10.dtd">
<svg version="1.0" xmlns="http://www.w3.org/2000/svg"
 width="100.000000pt" height="100.000000pt" viewBox="0 0 100.000000 100.000000"
 preserveAspectRatio="xMidYMid meet">

<g transform="translate(0.000000,100.000000) scale(0.100000,-0.100000)"
fill="#000000" stroke="none">
<path d="M425 881 c-47 -22 -89 -64 -104 -104 -6 -16 -11 -59 -11 -97 0 -38
-6 -82 -12 -97 -24 -54 -106 -188 -127 -207 -12 -11 -21 -27 -21 -38 0 -15 8
-18 49 -18 45 0 49 -2 62 -32 7 -18 26 -47 42 -65 28 -32 29 -34 12 -53 -11
-12 -14 -26 -10 -39 6 -20 13 -21 196 -21 209 0 219 3 186 60 -16 26 -15 28 7
49 13 12 31 40 41 62 17 38 20 39 67 39 61 0 63 15 9 76 -22 25 -58 80 -80
123 -38 72 -41 86 -41 155 0 88 -14 129 -59 171 -58 55 -136 69 -206 36z m154
-32 c62 -35 75 -62 81 -170 5 -83 11 -106 38 -161 18 -35 51 -87 72 -116 22
-29 40 -55 40 -57 0 -3 -18 -5 -40 -5 -36 0 -41 -3 -55 -38 -9 -20 -32 -53
-51 -73 -22 -23 -32 -39 -25 -43 6 -4 16 -16 21 -27 10 -18 6 -19 -160 -19
l-172 0 21 28 20 27 -29 30 c-16 17 -40 50 -53 75 -20 39 -28 45 -59 48 l-36
3 46 67 c76 113 102 180 102 265 0 60 4 80 23 108 52 77 140 101 216 58z"/>
<path d="M430 735 c0 -8 7 -15 15 -15 8 0 15 7 15 15 0 8 -7 15 -15 15 -8 0
-15 -7 -15 -15z"/>
<path d="M540 735 c0 -8 7 -15 15 -15 8 0 15 7 15 15 0 8 -7 15 -15 15 -8 0
-15 -7 -15 -15z"/>
<path d="M480 685 c-11 -13 -8 -15 20 -15 28 0 31 2 20 15 -7 8 -16 15 -20 15
-4 0 -13 -7 -20 -15z"/>
</g>
</svg>
